<!DOCTYPE svg PUBLIC "-//W3C//DTD SVG 1.1//EN" "http://www.w3.org/Graphics/SVG/1.1/DTD/svg11.dtd">
<!-- Uploaded to: SVG Repo, www.svgrepo.com, Transformed by: SVG Repo Mixer Tools -->
<svg width="81px" height="81px" viewBox="-24 -24 72.00 72.00" fill="none" xmlns="http://www.w3.org/2000/svg" stroke="#000000" transform="matrix(1, 0, 0, 1, 0, 0)">
<g id="SVGRepo_bgCarrier" stroke-width="0"/>
<g id="SVGRepo_tracerCarrier" stroke-linecap="round" stroke-linejoin="round"/>
<g id="SVGRepo_iconCarrier"> <path d="M17.1668 11.1733C17.1668 12.5307 17.1668 9.81592 17.1668 11.1733ZM17.1668 11.1733C17.1668 12.5307 17.1668 13.8881 17.1668 13.8881M17.1668 11.1733C17.1668 9.81592 20.0001 9.81592 20.0001 11.1733C20.0001 12.5307 20.0001 12.8701 20.0001 18.2997C20.0001 23.7294 7.85591 23.7756 5.68023 18.2997C4.87315 16.2684 5.01308 16.7027 4.2713 14.941C3.52953 13.1794 5.97114 12.1286 6.9472 13.8881C7.92326 15.6477 8.66677 18.4383 8.66677 17.2817C8.66677 16.125 8.66677 12.5307 8.66677 11.1733C8.66677 9.81592 8.66677 5.37546 8.66677 4.01805C8.66677 2.66065 11.5001 2.66065 11.5001 4.01805M17.1668 11.1733C17.1668 9.81592 14.3239 9.81592 14.3334 11.1733M14.3334 11.1733C14.3334 9.81592 11.5001 9.81592 11.5001 11.1733C11.5001 11.4976 11.5001 3.66565 11.5001 4.01805M14.3334 11.1733C14.3334 11.4976 14.3334 10.8209 14.3334 11.1733ZM14.3334 11.1733C14.3477 13.2094 14.3334 13.8881 14.3334 13.8881M11.5001 13.8881C11.5001 13.8881 11.5001 7.41019 11.5001 4.01805" stroke="#000000" stroke-width="1.32" stroke-linecap="round"/> </g>
</svg>